<?xml version="1.0" encoding="UTF-8"?>
<svg version="1.1" xmlns="http://www.w3.org/2000/svg" width="1024" height="1024">
<path d="M0 0 C2.8962552 2.96178134 5.44833819 5.77871403 7.16267133 9.57395774 C8.81003416 12.30052869 8.81003416 12.30052869 11.98064876 12.62510318 C13.83235899 12.6251857 13.83235899 12.6251857 15.72147751 12.62526989 C16.75680874 12.63555749 16.75680874 12.63555749 17.81305575 12.64605293 C20.14356603 12.66306061 22.47243723 12.64422199 24.80291748 12.6257782 C26.48344391 12.6306539 28.16396518 12.63772861 29.84447408 12.64682227 C34.47620212 12.66551593 39.10740953 12.65297568 43.73912334 12.635553 C48.72905634 12.62221577 53.71890724 12.63764684 58.70883179 12.64971924 C67.3603272 12.66677253 76.01166959 12.66572498 84.66316986 12.65271568 C97.17948631 12.6340959 109.69564368 12.64483843 122.21195427 12.66319225 C142.52738088 12.69236738 162.84275836 12.70069009 183.15820312 12.69458008 C202.87891194 12.68872024 222.59960425 12.68764074 242.3203125 12.6965332 C243.5342607 12.69707577 244.74820891 12.69761835 245.99894342 12.69817736 C259.25007793 12.70434305 272.50120828 12.7130769 285.75233841 12.72552967 C287.49911968 12.7271684 287.49911968 12.7271684 289.28118946 12.72884024 C293.93647145 12.73325947 298.59175335 12.73773329 303.24703494 12.74256585 C316.88323502 12.75669588 330.51937946 12.76270601 344.15558508 12.75402997 C352.71083143 12.74885009 361.26605936 12.75021407 369.82130477 12.75673302 C374.75981348 12.76018354 379.6982649 12.76022091 384.63676834 12.7515049 C389.15701432 12.74354737 393.67716279 12.74469378 398.19740716 12.75307081 C399.83336741 12.75445083 401.46933478 12.75242802 403.1052855 12.74667271 C405.32869594 12.73931586 407.55175717 12.74427371 409.77515793 12.75225353 C411.62784227 12.75160547 411.62784227 12.75160547 413.51795459 12.75094432 C419.75406006 13.19698603 424.46601533 14.6034088 429 19 C429 19.66 429 20.32 429 21 C429.58265625 21.25394531 430.1653125 21.50789063 430.765625 21.76953125 C433.24188033 23.13320333 434.80520626 24.64225203 436.75 26.6875 C439.95912757 29.97921541 443.26871075 33.03662391 446.75 36.03515625 C451.05818759 39.7973409 455.24130428 43.69966891 459.44873047 47.57373047 C461.89807994 49.82571341 464.35636141 52.06792651 466.8125 54.3125 C471.49002998 58.59141224 476.12323636 62.91630861 480.75 67.25 C485.07787238 71.30182023 489.42832491 75.30351449 493.921875 79.171875 C496.78514714 81.69069335 499.57773941 84.28330815 502.375 86.875 C506.46517484 90.66145192 510.55971305 94.44202617 514.6875 98.1875 C515.86892578 99.26064453 515.86892578 99.26064453 517.07421875 100.35546875 C518.90589424 102.05325953 518.90589424 102.05325953 521 103 C521 103.66 521 104.32 521 105 C521.59296875 105.26425781 522.1859375 105.52851563 522.796875 105.80078125 C525.08029054 107.04370425 526.47426723 108.30401646 528.25 110.1875 C532.59026948 114.65844426 537.13691284 118.98134867 542.23828125 122.578125 C542.81964844 123.04734375 543.40101563 123.5165625 544 124 C544 124.66 544 125.32 544 126 C544.86625 126.3403125 544.86625 126.3403125 545.75 126.6875 C549.14222063 128.66629537 551.25493471 131.50986942 553 135 C553.09746886 136.6723825 553.13099439 138.34865126 553.13422108 140.02386856 C553.13867892 141.09355291 553.14313676 142.16323725 553.14772969 143.26533628 C553.14745315 145.04224036 553.14745315 145.04224036 553.14717102 146.8550415 C553.15084771 148.10616753 553.1545244 149.35729356 553.1583125 150.6463325 C553.16834847 154.13051488 553.17205185 157.61468002 553.17470181 161.09887481 C553.17860015 164.85223485 553.18817881 168.60558118 553.19691467 172.3589325 C553.21669256 181.42902214 553.22674703 190.49911293 553.23564246 199.56921875 C553.24002325 203.8381464 553.24539061 208.10707279 553.25063133 212.37599945 C553.26764504 226.56295642 553.28213982 240.7499126 553.28938007 254.9368782 C553.29129004 258.61986543 553.29321036 262.30285264 553.29516602 265.98583984 C553.29564976 266.90125371 553.2961335 267.81666758 553.2966319 268.75982127 C553.30493443 283.59312427 553.33027447 298.42634669 553.36274669 313.2596145 C553.39579744 328.48097545 553.41382704 343.70229543 553.41702431 358.92369246 C553.41919127 367.47304641 553.42796695 376.02228284 553.45348549 384.57160187 C553.47516543 391.85182173 553.48325631 399.13189555 553.47351871 406.41214404 C553.46896607 410.12735428 553.47091567 413.84226305 553.49028015 417.55743217 C553.51108756 421.58417615 553.50095215 425.61024808 553.48774719 429.63702393 C553.50420106 431.40054368 553.50420106 431.40054368 553.52098733 433.1996901 C553.44389481 442.90367027 550.73915921 446.55182085 543.875 453.375 C543.00617187 454.24898437 542.13734375 455.12296875 541.2421875 456.0234375 C539 458 539 458 537 458 C536.79375 458.53625 536.5875 459.0725 536.375 459.625 C534.46749574 462.91978009 531.95180616 465.59363628 529 468 C528.34 468 527.68 468 527 468 C527 468.66 527 469.32 527 470 C525.53276062 471.44723511 525.53276062 471.44723511 523.50268555 473.12841797 C519.10463962 476.87060594 515.0232929 480.84849001 510.95703125 484.9453125 C510.22554367 485.67821503 509.49405609 486.41111755 508.74040222 487.16622925 C506.42871634 489.48345622 504.12054642 491.80414855 501.8125 494.125 C500.2534891 495.68903526 498.69424626 497.25283936 497.13476562 498.81640625 C494.27566326 501.68363253 491.41788363 504.55216232 488.56176758 507.42236328 C487.94413544 508.04232178 487.3265033 508.66228027 486.69015503 509.30102539 C485.24644559 510.75226841 483.80720666 512.20795644 482.36889648 513.66455078 C479.79448655 516.20261174 477.13777425 518.62583945 474.453125 521.046875 C468.00704067 526.90847826 461.86823595 533.0497711 455.75 539.25 C432.4776543 562.82990974 432.4776543 562.82990974 426.25896627 563.13406253 C425.07879279 563.13834679 423.8986193 563.14263105 422.68268299 563.14704514 C422.02400674 563.15078614 421.36533049 563.15452715 420.68669435 563.15838152 C418.45801914 563.16979879 416.2293861 563.17406562 414.00068665 563.17840576 C412.39527545 563.18511484 410.78986599 563.19225228 409.18445843 563.19978356 C404.75588616 563.21925485 400.32731369 563.23243376 395.89871609 563.24458575 C391.12896153 563.25872144 386.35922998 563.27852603 381.5894928 563.29753113 C371.15147309 563.33796964 360.71343772 563.3708513 350.27538705 563.40211773 C343.76086532 563.42164288 337.24634881 563.44262707 330.7318325 563.46387482 C312.7043536 563.52239267 294.67687097 563.57900245 276.64936543 563.62871933 C275.49482821 563.63190651 274.340291 563.63509368 273.15076781 563.63837744 C271.99342251 563.64157067 270.83607721 563.64476389 269.64366084 563.64805388 C267.29832923 563.65452625 264.95299762 563.66100179 262.60766602 563.66748047 C261.44429343 563.67069251 260.28092085 563.67390456 259.08229455 563.67721394 C240.2307133 563.72962437 221.37920579 563.79558825 202.52768943 563.86739931 C183.18519755 563.94088661 163.84269629 564.00307822 144.50013131 564.05390286 C133.63517678 564.08271619 122.7702858 564.11641706 111.90538979 564.16255951 C102.65335854 564.20179789 93.40136751 564.23073979 84.14926467 564.24618712 C79.42741738 564.25438056 74.70571704 564.26748069 69.9839325 564.29369926 C65.66162948 564.31758193 61.3395265 564.3275488 57.01715972 564.32641616 C55.4531595 564.3284591 53.88915591 564.33560961 52.32520644 564.3483735 C50.19872832 564.36497583 48.07303738 564.36293823 45.94652271 564.35631943 C44.76553747 564.35995428 43.58455223 564.36358913 42.36777955 564.36733413 C36.89082826 563.76994612 32.30247143 561.71799463 28.2109375 557.9609375 C27.54288086 557.34831055 26.87482422 556.73568359 26.18652344 556.10449219 C21.93261293 552.01017457 17.76917823 547.83003254 13.625 543.625 C11.8486586 541.82324599 10.07012661 540.02364817 8.2890625 538.2265625 C7.51256348 537.43846191 6.73606445 536.65036133 5.93603516 535.83837891 C4.12774043 533.94237659 4.12774043 533.94237659 2 533 C1.773125 533.556875 1.54625 534.11375 1.3125 534.6875 C-2.5526619 541.49754715 -10.00767279 546.58703859 -17.2890625 549.1640625 C-21.25464155 550.05736136 -24.9622139 550.26098461 -29 550.1875 C-29.67289063 550.18685547 -30.34578125 550.18621094 -31.0390625 550.18554688 C-35.45703642 550.14716679 -39.65275079 549.70756009 -44 549 C-44 548.34 -44 547.68 -44 547 C-44.72316406 546.74992188 -45.44632813 546.49984375 -46.19140625 546.2421875 C-54.85883411 542.40874931 -60.04473356 535.14215703 -63.94140625 526.796875 C-67.4008976 517.65666908 -66.73379266 508.0062023 -63.22265625 499.0078125 C-58.61716795 488.84806577 -51.52888638 483.38799887 -41.578125 478.91015625 C-33.96064037 476.22095334 -23.83751869 476.11792004 -16 478 C-14.4921875 479.34765625 -14.4921875 479.34765625 -13 481 C-11.40878819 482.08180493 -9.80320421 483.14262831 -8.1875 484.1875 C-1.09365232 489.09227096 3.06612765 495.43486086 7 503 C7 503.66 7 504.32 7 505 C7.83011597 505.34224609 7.83011597 505.34224609 8.67700195 505.69140625 C11.66906606 507.37689901 13.74510635 509.50350653 16.16796875 511.9375 C16.64825027 512.41823975 17.1285318 512.89897949 17.62336731 513.39428711 C18.6333707 514.40730151 19.64095273 515.4227352 20.64624023 516.44042969 C22.18746045 517.99995998 23.73658712 519.5512857 25.28710938 521.1015625 C32.85232355 528.70464709 32.85232355 528.70464709 34 531 C37.25979222 532.08659741 39.73249994 532.16676253 43.16455078 532.22460938 C44.43662384 532.24712769 45.7086969 532.269646 47.01931763 532.29284668 C52.84703012 532.36875811 58.67485927 532.42155265 64.50292969 532.45996094 C67.57413949 532.4821955 70.64412625 532.5239036 73.71484375 532.58300781 C77.43375767 532.65443377 81.15152539 532.69084122 84.87108994 532.70307922 C86.28166542 532.71342442 87.69221013 532.73571657 89.10239029 532.77067566 C97.49304399 532.96786228 102.98519712 532.55023617 109.2897644 526.71350098 C109.85414215 526.14804565 110.4185199 525.58259033 111 525 C111.9075 524.29875 112.815 523.5975 113.75 522.875 C116.90870137 520.24274886 119.72024817 517.31119536 122.58984375 514.37109375 C127.46007413 509.43460173 132.59641849 504.88212182 137.88671875 500.40234375 C142.00131948 496.9125197 145.84112061 493.26091598 149.5703125 489.35546875 C151.01175127 487.86876741 152.50286335 486.43059724 154 485 C154.66 485 155.32 485 156 485 C156 484.34 156 483.68 156 483 C157.3984375 481.58984375 157.3984375 481.58984375 159.375 479.9375 C162.53748017 477.24661775 165.66541069 474.53012337 168.75 471.75 C169.58273437 471.00105469 170.41546875 470.25210937 171.2734375 469.48046875 C173.24970645 467.68257365 175.21200579 465.87455319 177.1640625 464.05078125 C177.69805664 463.55416992 178.23205078 463.05755859 178.78222656 462.54589844 C179.82169517 461.57780965 180.85767927 460.60596197 181.88964844 459.62988281 C187.07512126 454.80854853 190.46005002 453.70189238 197.48173523 453.76863098 C198.23834358 453.76777754 198.99495192 453.7669241 199.77448779 453.7660448 C202.31159323 453.7654305 204.84843022 453.77894984 207.38549805 453.79223633 C209.20397352 453.79439755 211.02245038 453.79558416 212.84092712 453.79586792 C216.758737 453.79792426 220.67648172 453.80562964 224.59427452 453.8173008 C230.79301221 453.83444906 236.99163311 453.83121173 243.19038391 453.82365417 C260.81798568 453.80446296 278.44543688 453.79776322 296.07299805 453.84545898 C305.80736005 453.87163054 315.54139034 453.87290948 325.27575523 453.84631175 C330.42551312 453.83332932 335.57455185 453.83332973 340.72424889 453.8641758 C345.57137983 453.89315046 350.41740994 453.88962677 355.2645359 453.86156845 C357.039421 453.85708223 358.81438378 453.86447909 360.5891571 453.88489723 C373.03897728 454.09186359 373.03897728 454.09186359 383.43594074 447.71482372 C383.9520803 447.14893189 384.46821985 446.58304007 385 446 C385.77472656 445.278125 386.54945313 444.55625 387.34765625 443.8125 C387.91355469 443.214375 388.47945312 442.61625 389.0625 442 C399.12298834 431.67846107 399.12298834 431.67846107 405 429 C405 428.34 405 427.68 405 427 C406.22265625 425.765625 406.22265625 425.765625 408.0625 424.25 C412.24109515 420.70004306 416.25385014 417.00189013 420.25 413.25 C423.97769841 409.75114629 427.70437062 406.25379274 431.49609375 402.82421875 C432.0365332 402.33469727 432.57697266 401.84517578 433.13378906 401.34082031 C434.59049968 400.02511123 436.05097738 398.71357632 437.51171875 397.40234375 C442.50254279 392.72915954 442.50254279 392.72915954 444.50057125 386.35334015 C444.52118524 384.91218049 444.51989247 383.47060488 444.50120544 382.02941895 C444.50673984 381.23238194 444.51227424 380.43534493 444.51797634 379.61415529 C444.53157819 376.94622804 444.51661653 374.27923706 444.50170898 371.61132812 C444.50549234 369.69754133 444.51099251 367.78375727 444.51808167 365.86997986 C444.53205142 360.67370865 444.52085574 355.477768 444.50437045 350.28151512 C444.49052721 344.84526683 444.4969792 339.40903787 444.50050354 333.97277832 C444.50320623 324.84328887 444.48972493 315.71393084 444.46655273 306.58447266 C444.43994267 296.02742995 444.43819571 285.47060702 444.4499411 274.91354227 C444.46071788 264.76072787 444.45453257 254.60799302 444.44038582 244.45518494 C444.43462517 240.13311382 444.43470934 235.8111009 444.43945122 231.48902893 C444.44422125 226.40004139 444.43411811 221.3112947 444.41249657 216.22235298 C444.4069289 214.35389073 444.40646321 212.48540534 444.41144943 210.61694145 C444.41739913 208.0678868 444.40490344 205.51956928 444.38768005 202.97058105 C444.3936901 202.22982094 444.39970014 201.48906083 444.40589231 200.72585344 C444.33901026 195.28860621 442.97744429 192.15848822 439.34936523 188.19824219 C438.75841064 187.65329102 438.16745605 187.10833984 437.55859375 186.546875 C436.89794922 185.93263672 436.23730469 185.31839844 435.55664062 184.68554688 C434.85732422 184.04681641 434.15800781 183.40808594 433.4375 182.75 C432.71369141 182.08033203 431.98988281 181.41066406 431.24414062 180.72070312 C426.76577675 176.58652092 422.24468039 172.50118964 417.6953125 168.4453125 C413.36877835 164.52008007 409.12631123 160.50491699 404.8828125 156.49023438 C400.97080028 152.80120685 396.98828215 149.21708403 392.92822266 145.69189453 C389.40715642 142.60237959 386.00035681 139.38967851 382.58203125 136.1875 C380.32708825 134.08937558 378.10464203 132.07591677 375.609375 130.265625 C375.07828125 129.84796875 374.5471875 129.4303125 374 129 C374 128.34 374 127.68 374 127 C373.13375 126.5978125 373.13375 126.5978125 372.25 126.1875 C370 125 370 125 367.9375 123.4375 C365.95818504 121.81311272 365.95818504 121.81311272 363 121 C362.67 121.66 362.34 122.32 362 123 C361.34 122.34 360.68 121.68 360 121 C356.89452321 120.69385442 356.89452321 120.69385442 353.16964722 120.74603271 C352.10361824 120.74135274 352.10361824 120.74135274 351.01605332 120.73657823 C348.62243551 120.72856855 346.22906915 120.73493346 343.83544922 120.74121094 C342.12401683 120.73850224 340.41258561 120.734942 338.70115662 120.73059082 C334.0417667 120.72144594 329.38246501 120.72502077 324.72307348 120.73134899 C319.84875591 120.73640306 314.97444603 120.73171874 310.10012817 120.72857666 C301.90690757 120.72493321 293.71372296 120.72974387 285.52050781 120.73925781 C276.05595943 120.75012133 266.59149735 120.74663363 257.1269511 120.735605 C249.00200472 120.7265169 240.87708427 120.72525496 232.75213444 120.73048234 C227.8994074 120.73359647 223.04672085 120.73402712 218.19399643 120.72740936 C213.62546588 120.72161519 209.05704595 120.72567068 204.4885273 120.73719788 C202.81482819 120.73983433 201.14111973 120.73909676 199.46742439 120.73467255 C197.17557701 120.72917485 194.88407995 120.73610216 192.59225464 120.74603271 C191.31171644 120.74678677 190.03117825 120.74754082 188.71183586 120.74831772 C183.99707832 121.06800344 179.00104513 121.57990346 175.0625 124.375 C172.9435991 127.61567197 172.87472355 131.01648704 172.87250805 134.8014431 C172.8695004 135.77060768 172.86649275 136.73977225 172.86339396 137.73830545 C172.86601952 139.33137834 172.86601952 139.33137834 172.86869812 140.95663452 C172.86658241 142.08696283 172.86446669 143.21729114 172.86228687 144.38187182 C172.85627763 148.18346455 172.85728767 151.98502418 172.8581543 155.78662109 C172.85569594 158.50650698 172.85167664 161.22638988 172.84762573 163.9462738 C172.83951397 169.81044889 172.83456935 175.67461963 172.83133507 181.53879929 C172.82583765 190.80734843 172.80893968 200.0758608 172.78999329 209.34439087 C172.78363663 212.51537889 172.7773282 215.68636701 172.77101612 218.85735512 C172.76943236 219.64981215 172.7678486 220.44226918 172.76621684 221.25874006 C172.74828102 230.27893605 172.73205386 239.29913463 172.71704102 248.31933594 C172.71566514 249.14390036 172.71428927 249.96846478 172.71287171 250.81801601 C172.69093685 264.18324998 172.68018412 277.54847448 172.67267027 290.91372328 C172.66460092 304.634532 172.64131728 318.35525946 172.6047166 332.07602179 C172.58268544 340.53984523 172.5730288 349.00350162 172.57921693 357.46735229 C172.5823901 363.26698939 172.57107091 369.06648376 172.54832252 374.86607669 C172.5356478 378.21276531 172.53166728 381.55886993 172.54073906 384.90561104 C172.54958203 388.53386493 172.53400587 392.16121769 172.51225281 395.78939819 C172.52491661 397.37577892 172.52491661 397.37577892 172.53783625 398.99420774 C172.42295684 409.32911166 167.80018914 413.47404467 160.5859375 420.55078125 C157.76947637 423.21833582 154.87681778 425.76802335 151.9296875 428.2890625 C149.86691479 430.11799863 147.9340928 432.03580458 146 434 C142.86333539 437.17921626 139.61075412 440.13861927 136.23046875 443.0546875 C128.46606902 449.82644068 120.99391308 456.93252922 113.5 464 C86.47274854 489.46666208 86.47274854 489.46666208 80.8125 490.6875 C74.98699378 489.26348737 70.92163853 485.38300777 67 481 C67 480.34 67 479.68 67 479 C66.41476562 478.74992187 65.82953125 478.49984375 65.2265625 478.2421875 C62.70467294 476.83523859 61.24913938 475.31287196 59.375 473.125 C58.48941406 472.10792969 58.48941406 472.10792969 57.5859375 471.0703125 C56.08681913 469.11333531 55.01430932 467.23951463 54 465 C53.34 465 52.68 465 52 465 C50.58984375 463.6015625 50.58984375 463.6015625 48.9375 461.625 C48.3084375 460.88636719 47.679375 460.14773438 47.03125 459.38671875 C46.3609375 458.59910156 45.690625 457.81148437 45 457 C39.17523834 450.40091486 33.18008816 443.96484138 27.16503906 437.54003906 C22.37619314 432.41895884 17.66947323 427.23016045 13 422 C11.45875549 420.29128579 9.9170847 418.58295599 8.375 416.875 C5.71445443 413.92446417 3.08939541 410.95050617 0.5 407.9375 C-0.66549672 406.62396098 -1.8322379 405.31152547 -3 404 C-3.71027344 403.1646875 -4.42054688 402.329375 -5.15234375 401.46875 C-7.32698931 399.05991184 -9.3929776 396.93365536 -12 395 C-15.30246144 394.88991795 -16.93523533 395.17083422 -20 396 C-31.16981553 397.61668383 -40.76671123 397.12680152 -50.375 390.75 C-58.45121397 384.56341302 -64.00532345 377.16155979 -66 367 C-66.96714312 355.44184701 -64.99142691 345.79021297 -57.5546875 336.70703125 C-50.93831038 329.44231567 -42.30251209 324.58330358 -32.45703125 323.796875 C-20.58879055 323.58650737 -11.53305928 326.94270525 -2.80078125 335.0390625 C4.31617585 342.48489932 7.1800282 349.25332921 7.4375 359.5625 C7.3086703 364.87672513 6.71712577 369.30407661 4.55859375 374.16796875 C3.80798095 376.62976877 3.96762825 377.62821491 5 380 C7.3020096 382.59013742 7.3020096 382.59013742 10.0625 385.125 C11.74327151 386.7138359 13.39832072 388.33146296 15 390 C15 390.66 15 391.32 15 392 C15.66 392 16.32 392 17 392 C18.48046875 393.50390625 18.48046875 393.50390625 20.1875 395.5625 C22.53279758 398.3253868 24.90829405 400.96679757 27.5 403.5 C29.79326036 405.75797943 31.96428028 408.05996504 34.0625 410.5 C38.13011264 415.22100743 42.40225386 419.74578359 46.67407227 424.28125 C51.21295448 429.11314947 55.59026389 434.03904688 60 439 C60 336.7 60 234.4 60 129 C54.20248213 135.37726966 48.67236109 141.57098034 43.2890625 148.23828125 C40.09252826 152.09485072 36.71553246 155.77219624 33.328125 159.4609375 C29.19131313 163.97256119 25.19389177 168.59985491 21.21875 173.25390625 C20.18755371 174.46098338 19.15630227 175.66801341 18.125 176.875 C17.6088916 177.47924805 17.0927832 178.08349609 16.56103516 178.70605469 C12.75984263 183.14416504 8.88256369 187.50522869 4.9375 191.81640625 C2.87011267 194.14638512 0.92667186 196.55295471 -1 199 C-0.73316406 199.53367187 -0.46632813 200.06734375 -0.19140625 200.6171875 C5.65454154 212.30908308 9.37640726 219.86965638 7 233 C5.47640476 237.35312924 3.4861076 241.12459698 1 245 C0.6184375 245.61359375 0.236875 246.2271875 -0.15625 246.859375 C-5.164032 253.79873006 -14.76315487 258.33020084 -23 260 C-27.66226628 260.50536786 -32.31507323 260.80673844 -37 261 C-37 260.34 -37 259.68 -37 259 C-37.86625 258.896875 -38.7325 258.79375 -39.625 258.6875 C-47.6882112 257.04499402 -53.60916781 251.99369673 -59 246 C-64.74822165 236.77046102 -66.95289379 228.82121856 -66 218 C-64.409375 211.62925842 -61.85783591 206.27237575 -58 201 C-57.731875 200.29875 -57.46375 199.5975 -57.1875 198.875 C-55.25558613 195.82460968 -52.13372504 194.58213409 -49 193 C-47.96166016 192.45279297 -47.96166016 192.45279297 -46.90234375 191.89453125 C-42.23276232 189.47682273 -38.30949142 187.92789993 -32.99609375 187.7890625 C-32.25552734 187.76070312 -31.51496094 187.73234375 -30.75195312 187.703125 C-29.20532563 187.65091816 -27.65840902 187.60668384 -26.11132812 187.5703125 C-21.82679374 187.43828167 -21.82679374 187.43828167 -18.03515625 185.6484375 C-16.82230594 183.86143085 -16.82230594 183.86143085 -16 181 C-14.61756852 179.89405481 -13.23495293 178.78833919 -11.8515625 177.68359375 C-8.70787332 174.82509157 -6.19262647 171.45940008 -3.54296875 168.1484375 C-0.83071206 164.76478788 1.98298646 161.47326859 4.8125 158.1875 C5.31644287 157.60129883 5.82038574 157.01509766 6.33959961 156.41113281 C8.41190006 154.00213682 10.48678893 151.59537619 12.56152344 149.18847656 C14.1046046 147.39741752 15.64648915 145.60534058 17.1875 143.8125 C17.68926758 143.22895752 18.19103516 142.64541504 18.70800781 142.04418945 C21.71736845 138.5324454 24.65930704 134.97557917 27.5625 131.375 C31.17686291 126.91750361 34.99958123 122.68848223 38.90551758 118.48876953 C42.76198121 114.31899783 46.3640513 109.97495774 49.921875 105.546875 C52.41399919 102.49261754 55.02647465 99.56366659 57.6875 96.65625 C60.09637404 93.61648038 60.13257068 90.74958898 60.16113281 87.02539062 C60.17074036 86.01424194 60.1803479 85.00309326 60.19024658 83.96130371 C60.19449646 82.87063599 60.19874634 81.77996826 60.203125 80.65625 C60.20882507 79.53561157 60.21452515 78.41497314 60.22039795 77.26037598 C60.22984684 74.88990219 60.23638149 72.51941527 60.24023438 70.14892578 C60.24996141 66.51441758 60.28099518 62.88046971 60.3125 59.24609375 C60.31902788 56.94531587 60.32427919 54.64453393 60.328125 52.34375 C60.3466452 50.70774841 60.3466452 50.70774841 60.36553955 49.03869629 C60.36253845 48.02754761 60.35953735 47.01639893 60.35644531 45.97460938 C60.36009094 45.0843103 60.36373657 44.19401123 60.36749268 43.2767334 C59.92256932 40.52029247 59.2106106 39.65708527 57 38 C52.14605215 36.75531742 47.22296917 36.83906796 42.2421875 36.83203125 C41.41671417 36.82870285 40.59124084 36.82537445 39.74075317 36.82194519 C38.00442051 36.81690422 36.26807825 36.81453599 34.53173828 36.81469727 C31.87646682 36.81250121 29.22160487 36.79428971 26.56640625 36.77539062 C24.87500141 36.77245802 23.18359462 36.77047233 21.4921875 36.76953125 C20.30458328 36.75875298 20.30458328 36.75875298 19.09298706 36.74775696 C13.72299971 36.74134694 13.72299971 36.74134694 9 39 C7.32020111 41.35205345 7.32020111 41.35205345 5.8125 44.125 C0.16560868 53.2921874 -6.621576 58.95864065 -17 62 C-26.54324093 64.21831966 -35.81288644 63.42852789 -44.453125 58.640625 C-53.61936652 52.75237714 -60.87745033 44.92541344 -63.4375 34.0625 C-65.14324597 22.82567859 -62.4989023 12.63197304 -56 3.375 C-50.71068042 -3.1012475 -42.47646761 -9.2779891 -34.125 -10.625 C-20.72722986 -11.93892923 -10.0872663 -8.93808406 0 0 Z " fill="#72C9FE" transform="translate(280,202)"/>
<path d="M0 0 C4 1 4 1 4 1 Z " fill="#77C8F7" transform="translate(251,463)"/>
<path d="M0 0 C0.66 0.66 1.32 1.32 2 2 C1.34 2 0.68 2 0 2 C0 1.34 0 0.68 0 0 Z " fill="#74BEEC" transform="translate(233,749)"/>
<path d="M0 0 C0.99 0.495 0.99 0.495 2 1 C1.01 1.495 1.01 1.495 0 2 C0 1.34 0 0.68 0 0 Z " fill="#78C9FB" transform="translate(264,597)"/>
<path d="M0 0 C3 1 3 1 3 1 Z " fill="#78C7F7" transform="translate(244,463)"/>
<path d="" fill="#75C2F3" transform="translate(0,0)"/>
<path d="" fill="#74C0F3" transform="translate(0,0)"/>
<path d="" fill="#75C2F3" transform="translate(0,0)"/>
<path d="M0 0 C2 1 2 1 2 1 Z " fill="#73C0F2" transform="translate(368,767)"/>
<path d="M0 0 C2 1 2 1 2 1 Z " fill="#74BFF1" transform="translate(344,767)"/>
<path d="M0 0 C2 1 2 1 2 1 Z " fill="#71BCED" transform="translate(699,766)"/>
<path d="M0 0 C2 1 2 1 2 1 Z " fill="#73BEEF" transform="translate(691,766)"/>
<path d="M0 0 C2 1 2 1 2 1 Z " fill="#74C1F1" transform="translate(667,766)"/>
<path d="M0 0 C2 1 2 1 2 1 Z " fill="#73C1F1" transform="translate(659,766)"/>
<path d="M0 0 C2 1 2 1 2 1 Z " fill="#73C1F1" transform="translate(651,766)"/>
<path d="M0 0 C2 1 2 1 2 1 Z " fill="#75C1F0" transform="translate(643,766)"/>
<path d="M0 0 C2 1 2 1 2 1 Z " fill="#73C1F3" transform="translate(619,766)"/>
<path d="M0 0 C2 1 2 1 2 1 Z " fill="#74C2F2" transform="translate(595,766)"/>
<path d="M0 0 C2 1 2 1 2 1 Z " fill="#75C1F2" transform="translate(571,766)"/>
<path d="M0 0 C2 1 2 1 2 1 Z " fill="#74C1F2" transform="translate(563,766)"/>
<path d="M0 0 C2 1 2 1 2 1 Z " fill="#75C0F2" transform="translate(547,766)"/>
<path d="M0 0 C2 1 2 1 2 1 Z " fill="#74C2F4" transform="translate(531,766)"/>
<path d="M0 0 C2 1 2 1 2 1 Z " fill="#74C1F2" transform="translate(507,766)"/>
<path d="M0 0 C2 1 2 1 2 1 Z " fill="#73C1F3" transform="translate(499,766)"/>
<path d="M0 0 C2 1 2 1 2 1 Z " fill="#73C1F2" transform="translate(491,766)"/>
<path d="M0 0 C2 1 2 1 2 1 Z " fill="#74C1F3" transform="translate(483,766)"/>
<path d="M0 0 C2 1 2 1 2 1 Z " fill="#74C1F3" transform="translate(475,766)"/>
<path d="M0 0 C2 1 2 1 2 1 Z " fill="#72C1F3" transform="translate(467,766)"/>
<path d="M0 0 C2 1 2 1 2 1 Z " fill="#74C2F3" transform="translate(435,766)"/>
<path d="M0 0 C2 1 2 1 2 1 Z " fill="#74C1F2" transform="translate(427,766)"/>
<path d="M0 0 C2 1 2 1 2 1 Z " fill="#74C2F2" transform="translate(403,766)"/>
<path d="M0 0 C2 1 2 1 2 1 Z " fill="#73C2F3" transform="translate(387,766)"/>
<path d="M0 0 C2 1 2 1 2 1 Z " fill="#73C2F2" transform="translate(371,766)"/>
<path d="M0 0 C2 1 2 1 2 1 Z " fill="#75C5F4" transform="translate(233,528)"/>
<path d="M0 0 C2 1 2 1 2 1 Z " fill="#76C8F8" transform="translate(248,463)"/>
<path d="M0 0 C2 1 2 1 2 1 Z " fill="#78C7F9" transform="translate(260,462)"/>
<path d="M0 0 C2 1 2 1 2 1 Z " fill="#77C8F7" transform="translate(240,462)"/>
<path d="" fill="#76C4F4" transform="translate(0,0)"/>
<path d="" fill="#75BCEB" transform="translate(0,0)"/>
<path d="" fill="#78BDEB" transform="translate(0,0)"/>
<path d="" fill="#76C8FA" transform="translate(0,0)"/>
<path d="M0 0 C2 1 2 1 2 1 Z " fill="#72BBE9" transform="translate(830,330)"/>
<path d="" fill="#74C7FA" transform="translate(0,0)"/>
<path d="" fill="#73BDED" transform="translate(0,0)"/>
<path d="" fill="#2E3538" transform="translate(0,0)"/>
<path d="" fill="#74BFF2" transform="translate(0,0)"/>
<path d="" fill="#74C0F1" transform="translate(0,0)"/>
<path d="" fill="#74C1F1" transform="translate(0,0)"/>
<path d="" fill="#75C1F3" transform="translate(0,0)"/>
<path d="" fill="#74C2F2" transform="translate(0,0)"/>
<path d="" fill="#73C1F2" transform="translate(0,0)"/>
<path d="" fill="#74C0F3" transform="translate(0,0)"/>
<path d="" fill="#74C2F1" transform="translate(0,0)"/>
<path d="" fill="#75C1F2" transform="translate(0,0)"/>
<path d="" fill="#75C1F3" transform="translate(0,0)"/>
<path d="" fill="#74C2F2" transform="translate(0,0)"/>
<path d="" fill="#75C1F3" transform="translate(0,0)"/>
<path d="" fill="#74C1F3" transform="translate(0,0)"/>
<path d="" fill="#73C2F2" transform="translate(0,0)"/>
<path d="" fill="#73C2F2" transform="translate(0,0)"/>
<path d="" fill="#74C1F2" transform="translate(0,0)"/>
<path d="" fill="#74C1F3" transform="translate(0,0)"/>
<path d="" fill="#72C0F2" transform="translate(0,0)"/>
<path d="" fill="#73C0F2" transform="translate(0,0)"/>
<path d="" fill="#73BEEE" transform="translate(0,0)"/>
<path d="" fill="#74BDEC" transform="translate(0,0)"/>
<path d="" fill="#75C1F0" transform="translate(0,0)"/>
<path d="" fill="#74C0EF" transform="translate(0,0)"/>
<path d="" fill="#74C2F1" transform="translate(0,0)"/>
<path d="" fill="#73C2F2" transform="translate(0,0)"/>
<path d="" fill="#74C1F2" transform="translate(0,0)"/>
<path d="" fill="#73C1F3" transform="translate(0,0)"/>
<path d="" fill="#73C1F3" transform="translate(0,0)"/>
<path d="" fill="#75C2F3" transform="translate(0,0)"/>
<path d="" fill="#73C1F0" transform="translate(0,0)"/>
<path d="" fill="#73C2F1" transform="translate(0,0)"/>
<path d="" fill="#73C1F2" transform="translate(0,0)"/>
<path d="" fill="#73C1F2" transform="translate(0,0)"/>
<path d="" fill="#74C2F2" transform="translate(0,0)"/>
<path d="" fill="#73C2F2" transform="translate(0,0)"/>
<path d="" fill="#74C2F1" transform="translate(0,0)"/>
<path d="" fill="#73C1F1" transform="translate(0,0)"/>
<path d="" fill="#77C3F2" transform="translate(0,0)"/>
<path d="" fill="#77C3F3" transform="translate(0,0)"/>
<path d="" fill="#6FC0F0" transform="translate(0,0)"/>
<path d="" fill="#73CAFB" transform="translate(0,0)"/>
<path d="" fill="#7ACBFE" transform="translate(0,0)"/>
<path d="" fill="#7ACEFE" transform="translate(0,0)"/>
<path d="" fill="#7BCCFD" transform="translate(0,0)"/>
<path d="" fill="#7ACBFD" transform="translate(0,0)"/>
<path d="" fill="#77CCFE" transform="translate(0,0)"/>
<path d="" fill="#79C9FC" transform="translate(0,0)"/>
<path d="" fill="#78CBFB" transform="translate(0,0)"/>
<path d="" fill="#78C9FC" transform="translate(0,0)"/>
<path d="" fill="#7ACEFF" transform="translate(0,0)"/>
<path d="" fill="#7ACAFC" transform="translate(0,0)"/>
<path d="" fill="#7DCAFF" transform="translate(0,0)"/>
<path d="" fill="#79C1EF" transform="translate(0,0)"/>
<path d="" fill="#76C1EF" transform="translate(0,0)"/>
<path d="" fill="#7ACAFD" transform="translate(0,0)"/>
<path d="" fill="#7ACBFC" transform="translate(0,0)"/>
<path d="" fill="#7ACBFD" transform="translate(0,0)"/>
<path d="" fill="#77CBFA" transform="translate(0,0)"/>
<path d="" fill="#79CBFB" transform="translate(0,0)"/>
<path d="" fill="#77CAFD" transform="translate(0,0)"/>
<path d="" fill="#77CCFB" transform="translate(0,0)"/>
<path d="" fill="#77C9FD" transform="translate(0,0)"/>
<path d="" fill="#76C8FB" transform="translate(0,0)"/>
<path d="" fill="#77CDFD" transform="translate(0,0)"/>
<path d="" fill="#74CAF8" transform="translate(0,0)"/>
<path d="" fill="#75C7F9" transform="translate(0,0)"/>
<path d="" fill="#76C9FC" transform="translate(0,0)"/>
<path d="" fill="#77C9F9" transform="translate(0,0)"/>
<path d="" fill="#77CAFC" transform="translate(0,0)"/>
<path d="" fill="#75C8FB" transform="translate(0,0)"/>
<path d="" fill="#77C7F9" transform="translate(0,0)"/>
<path d="" fill="#76C5F8" transform="translate(0,0)"/>
<path d="" fill="#76C3F1" transform="translate(0,0)"/>
<path d="" fill="#79CCFE" transform="translate(0,0)"/>
<path d="" fill="#76BFEF" transform="translate(0,0)"/>
<path d="" fill="#76C5F7" transform="translate(0,0)"/>
<path d="" fill="#75C9FC" transform="translate(0,0)"/>
<path d="" fill="#77BFEC" transform="translate(0,0)"/>
<path d="" fill="#76C5F7" transform="translate(0,0)"/>
<path d="" fill="#77C9FA" transform="translate(0,0)"/>
<path d="" fill="#78BDEB" transform="translate(0,0)"/>
<path d="" fill="#78BEEB" transform="translate(0,0)"/>
<path d="" fill="#75C5F7" transform="translate(0,0)"/>
<path d="" fill="#75C4F6" transform="translate(0,0)"/>
<path d="" fill="#76C5F5" transform="translate(0,0)"/>
<path d="" fill="#7ACAFD" transform="translate(0,0)"/>
<path d="" fill="#7AC7F9" transform="translate(0,0)"/>
<path d="" fill="#75C5F4" transform="translate(0,0)"/>
<path d="" fill="#76C6FA" transform="translate(0,0)"/>
<path d="" fill="#76C8FB" transform="translate(0,0)"/>
<path d="" fill="#75C3F5" transform="translate(0,0)"/>
<path d="" fill="#77C9FA" transform="translate(0,0)"/>
<path d="" fill="#74C3F4" transform="translate(0,0)"/>
<path d="" fill="#79C6F7" transform="translate(0,0)"/>
<path d="" fill="#75C4F5" transform="translate(0,0)"/>
<path d="" fill="#77C7FB" transform="translate(0,0)"/>
<path d="" fill="#75C4F5" transform="translate(0,0)"/>
<path d="" fill="#79C7FB" transform="translate(0,0)"/>
<path d="" fill="#75BFEF" transform="translate(0,0)"/>
<path d="" fill="#75C9FB" transform="translate(0,0)"/>
<path d="" fill="#76C4F5" transform="translate(0,0)"/>
<path d="" fill="#76C9FA" transform="translate(0,0)"/>
<path d="" fill="#75C6F5" transform="translate(0,0)"/>
<path d="" fill="#75C8FA" transform="translate(0,0)"/>
<path d="" fill="#7ACCFE" transform="translate(0,0)"/>
<path d="" fill="#77BEEB" transform="translate(0,0)"/>
<path d="" fill="#78C9FC" transform="translate(0,0)"/>
<path d="" fill="#76C1EE" transform="translate(0,0)"/>
<path d="" fill="#75C2F1" transform="translate(0,0)"/>
<path d="" fill="#77C7FA" transform="translate(0,0)"/>
<path d="" fill="#77C7F7" transform="translate(0,0)"/>
<path d="" fill="#78C8F7" transform="translate(0,0)"/>
<path d="" fill="#75C9FA" transform="translate(0,0)"/>
<path d="" fill="#77CAFB" transform="translate(0,0)"/>
<path d="" fill="#79C7FB" transform="translate(0,0)"/>
<path d="" fill="#77C6F9" transform="translate(0,0)"/>
<path d="" fill="#78C9FC" transform="translate(0,0)"/>
<path d="" fill="#79C7FA" transform="translate(0,0)"/>
<path d="" fill="#76C8FA" transform="translate(0,0)"/>
<path d="" fill="#75C6FC" transform="translate(0,0)"/>
<path d="" fill="#75C8F8" transform="translate(0,0)"/>
<path d="" fill="#79C8FB" transform="translate(0,0)"/>
<path d="" fill="#76C8FB" transform="translate(0,0)"/>
<path d="" fill="#77C8FC" transform="translate(0,0)"/>
<path d="" fill="#76C3F6" transform="translate(0,0)"/>
<path d="" fill="#75C2F6" transform="translate(0,0)"/>
<path d="" fill="#7AC8FB" transform="translate(0,0)"/>
<path d="" fill="#77CBFB" transform="translate(0,0)"/>
<path d="" fill="#77CAFA" transform="translate(0,0)"/>
<path d="" fill="#77C8FD" transform="translate(0,0)"/>
<path d="" fill="#71BEEC" transform="translate(0,0)"/>
<path d="" fill="#77C8F6" transform="translate(0,0)"/>
<path d="" fill="#74BBE7" transform="translate(0,0)"/>
</svg>
